<svg width="16" height="16" viewBox="0 0 16 16" fill="none" xmlns="http://www.w3.org/2000/svg">
  <path d="M7.9 1C5.6 1 4.4 2 4.4 3.3V5H8.2V5.7H3.2C1.9 5.7 1 6.8 1 8.5C1 10.2 1.9 11.3 3.2 11.3H4.7V9.5C4.7 8.3 5.6 7.3 7 7.3H10C11 7.3 11.7 6.6 11.7 5.7V3.3C11.7 2 10.2 1 7.9 1ZM6.2 2.3C6.6 2.3 6.9 2.6 6.9 3C6.9 3.4 6.6 3.7 6.2 3.7C5.8 3.7 5.5 3.4 5.5 3C5.5 2.6 5.8 2.3 6.2 2.3Z" fill="#2B5F8A"/>
  <path d="M8.1 15C10.4 15 11.6 14 11.6 12.7V11H7.8V10.3H12.8C14.1 10.3 15 9.2 15 7.5C15 5.8 14.1 4.7 12.8 4.7H11.3V6.5C11.3 7.7 10.4 8.7 9 8.7H6C5 8.7 4.3 9.4 4.3 10.3V12.7C4.3 14 5.8 15 8.1 15ZM9.8 13.7C9.4 13.7 9.1 13.4 9.1 13C9.1 12.6 9.4 12.3 9.8 12.3C10.2 12.3 10.5 12.6 10.5 13C10.5 13.4 10.2 13.7 9.8 13.7Z" fill="#C8A000"/>
</svg>
