<svg width="16" height="16" viewBox="0 0 16 16" fill="none" xmlns="http://www.w3.org/2000/svg">
  <path d="M14.7 7.3L8.7 1.3C8.3 0.9 7.7 0.9 7.3 1.3L5.9 2.7L7.7 4.5C8.1 4.3 8.6 4.4 8.9 4.7C9.2 5 9.3 5.5 9.1 5.9L10.8 7.6C11.2 7.4 11.7 7.5 12 7.8C12.4 8.2 12.4 8.8 12 9.2C11.6 9.6 11 9.6 10.6 9.2C10.3 8.9 10.2 8.4 10.4 8L8.8 6.4V10.5C8.9 10.5 9 10.6 9.1 10.7C9.5 11.1 9.5 11.7 9.1 12.1C8.7 12.5 8.1 12.5 7.7 12.1C7.3 11.7 7.3 11.1 7.7 10.7C7.8 10.6 7.9 10.5 8 10.5V6.3C7.9 6.3 7.8 6.2 7.7 6.1C7.4 5.8 7.3 5.3 7.5 4.9L5.7 3.1L1.3 7.3C0.9 7.7 0.9 8.3 1.3 8.7L7.3 14.7C7.7 15.1 8.3 15.1 8.7 14.7L14.7 8.7C15.1 8.3 15.1 7.7 14.7 7.3Z" fill="#F05032"/>
</svg>
